<svg xmlns="http://www.w3.org/2000/svg" viewBox="0 0 80 80">
    <path fill="none" stroke="#000" stroke-width="0.5" d="M13.297 47.02h53.404M13.297 32.98h53.404M6.36762 40L39.999 6.37 73.63037 40 39.999 73.63zm-5.7944 0L39.999.56 79.42476 40 39.999 79.44z" />
    <g fill="#000">
        <path d="M41.64 14.15a2.7 3.28 30 0 0-4 1.5 2.7 3.28 30 0 0 .23 3.8c.03-.4.12-.85.37-1.28.3-.5 1.03-.97 1.72-1.44.35-.24.7-.47.97-.7.28-.2.5-.42.57-.57.23-.45.2-.94.15-1.3zm.44.34c0 .35-.03.76-.23 1.15-.13.25-.37.47-.67.7-.3.23-.64.47-1 .7-.7.48-1.4 1-1.6 1.33-.3.5-.33 1-.32 1.38a2.7 3.28 30 0 0 .1.07 2.7 3.28 30 0 0 4-1.48 2.7 3.28 30 0 0-.28-3.86z" />
        <path d="M46.17 62.5q0 .5-.15.76-.16.26-.46.26-.3 0-.46-.26-.16-.26-.16-.75v-.4q0-.5.16-.76.15-.26.45-.26.3 0 .46.25.17.26.17.74zm-.18-.43q0-.4-.12-.6-.1-.22-.33-.22-.2 0-.32.2-.1.2-.1.6v.47q0 .4.1.6.1.23.33.23.2 0 .32-.2.1-.2.1-.6zm-1.88 1.4h-.2v-2.12l-.52.24v-.2l.68-.3h.04zm-1.2-.98q0 .5-.15.76t-.45.26q-.3 0-.46-.26-.16-.26-.16-.75v-.4q0-.5.15-.76.16-.26.46-.26.3 0 .47.25.15.26.16.74zm-.17-.43q0-.4-.1-.6-.12-.22-.34-.22-.2 0-.3.2-.12.2-.12.6v.47q0 .4.1.6.12.23.34.23.2 0 .3-.2.12-.2.13-.6zm-1.4 1.4H40.1v-.14l.67-.9q.17-.24.24-.4.08-.15.08-.3 0-.22-.1-.35-.12-.13-.3-.13-.2 0-.33.15-.1.16-.1.4h-.2q0-.3.18-.5.17-.22.44-.22t.43.17q.16.17.16.47 0 .28-.26.66l-.1.15-.58.8h1.04zm-2.77-.1q0-.06.03-.1.05-.04.1-.04.08 0 .12.04.03.04.03.1 0 .05-.03.1-.04.03-.1.03-.07 0-.1-.04-.04-.04-.04-.1zm0-2.08h-.67v2.18h-.17v-2.2h-.67v-.17h1.53zm-1.96 1.6q0-.2-.1-.3-.13-.12-.43-.23-.32-.1-.47-.23-.2-.17-.2-.44 0-.28.2-.45.2-.17.48-.17.3 0 .5.2t.2.5h-.2q0-.23-.12-.37-.14-.14-.37-.14-.2 0-.34.12-.13.12-.13.3 0 .2.12.3.12.12.4.2.26.1.4.2.13.1.2.22.06.12.06.3 0 .28-.18.45-.2.17-.5.17-.2 0-.38-.1-.17-.07-.27-.23-.1-.17-.1-.4h.2q0 .26.15.4t.4.14q.23 0 .36-.12.14-.12.14-.32zm-1.67-.55h-.92v.96h1.06v.18h-1.25V61.1h1.23v.2h-1.05v.88h.92zM56.2 28.7q-.1 1.2-.66 1.76-.56.55-1.56.55-1.04 0-1.63-.76-.6-.78-.6-2.12v-1.55q0-1.34.6-2.1t1.67-.76q1 0 1.54.58.55.57.63 1.75h-.58q-.08-.96-.46-1.38-.37-.4-1.14-.4-.8 0-1.26.6-.44.6-.44 1.73v1.52q0 1.14.43 1.77.43.63 1.23.63.83 0 1.2-.42.37-.4.44-1.38zm-5.77 2.22h-.55v-7.1h.55zm-3.66-2.96H45.1v2.96h-.55v-7.1h1.94q.97 0 1.5.54.53.55.53 1.54 0 .7-.33 1.2-.33.53-.9.73l1.5 3.02v.07h-.6zm-1.66-.52h1.5q.62 0 1-.43.37-.43.37-1.1 0-.75-.4-1.16-.38-.4-1.08-.4h-1.4zm-1.92.07h-2.76v2.9h3.18v.52h-3.74v-7.1h3.7v.5h-3.14V27h2.76zm-4.72 3.42h-.56l-3.36-6.06v6.06h-.56v-7.1h.56l3.36 6.05V23.8h.56zm-5.85-3.4h-2.75v2.88h3.17v.52H29.3v-7.1H33v.5h-3.15V27h2.76zM28 30.08q-.36.45-.9.68-.54.23-1.2.23-1.08 0-1.7-.72-.63-.73-.66-2.03v-1.73q0-1.36.6-2.08.6-.73 1.7-.73.97 0 1.53.55.55.54.62 1.56h-.56q-.07-.8-.47-1.18-.4-.38-1.12-.38-.86 0-1.3.58-.42.57-.42 1.7v1.63q0 1.1.47 1.73.48.62 1.34.62.92 0 1.5-.6v-1.85h-1.54v-.52h2.12zm26.7 22.76h-2.75v2.9h3.18v.5H51.4v-7.1h3.7v.52h-3.15v2.66h2.76zm-4.97 0h-2.76v2.9h3.18v.5h-3.73v-7.1h3.7v.52h-3.15v2.66h2.76zm-4.93.1h-2.73v3.3h-.56v-7.1h3.7v.52h-3.13v2.75h2.73zm-4.9 0h-2.73v3.3h-.56v-7.1h3.7v.52h-3.13v2.75h2.73zm-4.78.52q0 1.38-.6 2.13t-1.7.75q-1.07 0-1.7-.75-.6-.75-.6-2.1v-1.56q0-1.37.6-2.13.62-.75 1.7-.75 1.1 0 1.7.76.6.77.6 2.15zm-.56-1.54q0-1.17-.45-1.75-.44-.6-1.28-.6-.82 0-1.28.6-.46.56-.47 1.7v1.6q0 1.16.47 1.75.46.6 1.3.6.84 0 1.28-.6.44-.58.44-1.76zm-5.25 2.1q-.07 1.2-.63 1.77-.57.55-1.57.55-1.03 0-1.63-.77-.6-.78-.6-2.12V51.9q0-1.33.6-2.1.62-.75 1.67-.75 1 0 1.55.57.53.57.6 1.75h-.55q-.08-.96-.46-1.38-.4-.42-1.16-.42-.8 0-1.25.6-.46.6-.46 1.74v1.52q0 1.14.43 1.77.44.64 1.23.64.83 0 1.2-.42.37-.4.45-1.38zM61.25 41.1H58.9v4.14h-.77V35.3h2.72q1.36 0 2.1.76.76.78.76 2.16 0 .96-.45 1.7-.47.72-1.25 1l2.07 4.23v.1h-.84zm-2.33-.73H61q.87 0 1.4-.6.53-.6.53-1.55 0-1.05-.55-1.62-.55-.58-1.53-.58H58.9zm-3.28.1h-3.86v4.04h4.44v.74H51V35.3h5.2v.7h-4.42v3.73h3.86zm-6.44-4.45h-2.83v9.22h-.78v-9.22h-2.83v-.73h6.44zm-8.45 6.77q0-.84-.48-1.32-.47-.48-1.77-.92-1.3-.43-1.9-.97-.8-.72-.8-1.87 0-1.15.78-1.86.78-.72 2.03-.72 1.26 0 2.07.83.8.84.8 2.15h-.78q0-1-.58-1.62-.56-.6-1.53-.6-.96 0-1.5.5t-.54 1.3q0 .76.5 1.24.52.48 1.64.86 1.12.37 1.7.77.57.4.85.94.27.55.27 1.28 0 1.17-.8 1.88-.78.72-2.08.72-.87 0-1.6-.36-.72-.36-1.13-1.03-.4-.7-.4-1.6h.8q0 1.05.63 1.65.63.6 1.7.6.96 0 1.52-.5.58-.5.58-1.36zM29.1 41.2v4.04h-.8V35.3h2.9q1.33 0 2.08.78.76.8.76 2.18 0 1.4-.74 2.17-.73.76-2.1.76zm0-.74h2.1q1 0 1.52-.57.54-.58.54-1.63 0-1.04-.54-1.64-.54-.6-1.5-.6h-2.13zm-3.47 4.78h-.78V35.3h.78zm-3.5 0h-.77v-4.77h-4.68v4.77h-.78V35.3h.78v4.45h4.68V35.3h.78z" />
    </g>
</svg>
